<!--?xml version="1.0" encoding="utf-8"?-->
<!-- Generator: Adobe Illustrator 15.1.0, SVG Export Plug-In . SVG Version: 6.00 Build 0)  -->

<svg version="1.1" id="_x32_" xmlns="http://www.w3.org/2000/svg" xmlns:xlink="http://www.w3.org/1999/xlink" x="0px" y="0px" width="512px" height="512px" viewBox="0 0 512 512" style="width: 256px; height: 256px; opacity: 1;" xml:space="preserve">
<style type="text/css">

	.st0{fill:#4B4B4B;}

</style>
<g>
	<path class="st0" d="M212.225,241.063l16.922-0.281c-11.359-11.969-35.922-47.891-9.859-80.906c0,1.031,5.703,19.688,28.5,20.203
		s29.531-32.641,23.328-45.578c33.891,11.609,56.453,67.578,19.516,105.313l24.156-0.391
		c68.375-56.141,31.563-147.484-21.906-190.25C260.819,23.516,265.084,0,265.084,0s-46.891,34.141-31,70.547
		c12.828,29.391,4.828,36.75-0.531,36.328c-6.953-0.531-8.016-4.813-6.906-18.125c1.297-15.563-12.828-28.844-12.828-28.844
		s-24.047,25.641-43.281,59.313C151.303,152.875,154.506,218.625,212.225,241.063z" style="fill: rgb(75, 75, 75);"></path>
	<polygon class="st0" points="179.35,255.484 187.366,306.781 262.725,306.781 338.069,306.781 346.084,255.484 262.725,255.484 	
		" style="fill: rgb(75, 75, 75);"></polygon>
	<polygon class="st0" points="232.256,512 293.178,512 310.819,321.219 214.616,321.219 	" style="fill: rgb(75, 75, 75);"></polygon>
</g>
</svg>
